<mxfile host="app.diagrams.net" agent="Mozilla/5.0 (Windows NT 10.0; Win64; x64) AppleWebKit/537.36 (KHTML, like Gecko) Chrome/141.0.0.0 Safari/537.36" version="28.2.7">
  <diagram name="Strona-1" id="PEecjOJiIHhY2DFbFWOt">
    <mxGraphModel dx="1303" dy="703" grid="1" gridSize="10" guides="1" tooltips="1" connect="1" arrows="1" fold="1" page="1" pageScale="1" pageWidth="827" pageHeight="1169" math="0" shadow="0">
      <root>
        <mxCell id="0" />
        <mxCell id="1" parent="0" />
        <mxCell id="-7ICKPcDUCMhJo7mmsCI-3" style="rounded=0;orthogonalLoop=1;jettySize=auto;html=1;exitX=0.5;exitY=1;exitDx=0;exitDy=0;entryX=0.5;entryY=0;entryDx=0;entryDy=0;endArrow=none;endFill=0;" edge="1" parent="1" source="-7ICKPcDUCMhJo7mmsCI-1" target="-7ICKPcDUCMhJo7mmsCI-2">
          <mxGeometry relative="1" as="geometry" />
        </mxCell>
        <mxCell id="-7ICKPcDUCMhJo7mmsCI-56" value="1...1" style="edgeLabel;html=1;align=center;verticalAlign=middle;resizable=0;points=[];" vertex="1" connectable="0" parent="-7ICKPcDUCMhJo7mmsCI-3">
          <mxGeometry x="-0.4667" relative="1" as="geometry">
            <mxPoint as="offset" />
          </mxGeometry>
        </mxCell>
        <mxCell id="-7ICKPcDUCMhJo7mmsCI-57" value="1...1" style="edgeLabel;html=1;align=center;verticalAlign=middle;resizable=0;points=[];" vertex="1" connectable="0" parent="-7ICKPcDUCMhJo7mmsCI-3">
          <mxGeometry x="0.4933" relative="1" as="geometry">
            <mxPoint as="offset" />
          </mxGeometry>
        </mxCell>
        <mxCell id="-7ICKPcDUCMhJo7mmsCI-20" style="edgeStyle=orthogonalEdgeStyle;rounded=0;orthogonalLoop=1;jettySize=auto;html=1;exitX=1;exitY=0.5;exitDx=0;exitDy=0;entryX=0;entryY=0.5;entryDx=0;entryDy=0;endArrow=none;endFill=0;" edge="1" parent="1" source="-7ICKPcDUCMhJo7mmsCI-1" target="-7ICKPcDUCMhJo7mmsCI-4">
          <mxGeometry relative="1" as="geometry" />
        </mxCell>
        <mxCell id="-7ICKPcDUCMhJo7mmsCI-23" style="edgeStyle=orthogonalEdgeStyle;rounded=0;orthogonalLoop=1;jettySize=auto;html=1;exitX=0;exitY=1;exitDx=0;exitDy=0;endArrow=none;endFill=0;" edge="1" parent="1" source="-7ICKPcDUCMhJo7mmsCI-1" target="-7ICKPcDUCMhJo7mmsCI-7">
          <mxGeometry relative="1" as="geometry">
            <Array as="points">
              <mxPoint x="300" y="95" />
              <mxPoint x="130" y="95" />
            </Array>
          </mxGeometry>
        </mxCell>
        <mxCell id="-7ICKPcDUCMhJo7mmsCI-94" value="1...1" style="edgeLabel;html=1;align=center;verticalAlign=middle;resizable=0;points=[];" vertex="1" connectable="0" parent="-7ICKPcDUCMhJo7mmsCI-23">
          <mxGeometry x="-0.8402" y="1" relative="1" as="geometry">
            <mxPoint as="offset" />
          </mxGeometry>
        </mxCell>
        <mxCell id="-7ICKPcDUCMhJo7mmsCI-95" value="0...N" style="edgeLabel;html=1;align=center;verticalAlign=middle;resizable=0;points=[];" vertex="1" connectable="0" parent="-7ICKPcDUCMhJo7mmsCI-23">
          <mxGeometry x="0.8637" y="-1" relative="1" as="geometry">
            <mxPoint as="offset" />
          </mxGeometry>
        </mxCell>
        <mxCell id="-7ICKPcDUCMhJo7mmsCI-1" value="User" style="rounded=0;whiteSpace=wrap;html=1;" vertex="1" parent="1">
          <mxGeometry x="300" y="10" width="120" height="60" as="geometry" />
        </mxCell>
        <mxCell id="-7ICKPcDUCMhJo7mmsCI-2" value="Cart" style="rounded=0;whiteSpace=wrap;html=1;" vertex="1" parent="1">
          <mxGeometry x="300" y="120" width="120" height="60" as="geometry" />
        </mxCell>
        <mxCell id="-7ICKPcDUCMhJo7mmsCI-45" style="edgeStyle=orthogonalEdgeStyle;rounded=0;orthogonalLoop=1;jettySize=auto;html=1;entryX=0.5;entryY=0;entryDx=0;entryDy=0;endArrow=none;endFill=0;" edge="1" parent="1" source="-7ICKPcDUCMhJo7mmsCI-4" target="-7ICKPcDUCMhJo7mmsCI-43">
          <mxGeometry relative="1" as="geometry">
            <Array as="points">
              <mxPoint x="560" y="60" />
            </Array>
          </mxGeometry>
        </mxCell>
        <mxCell id="-7ICKPcDUCMhJo7mmsCI-62" value="1...N" style="edgeLabel;html=1;align=center;verticalAlign=middle;resizable=0;points=[];" vertex="1" connectable="0" parent="-7ICKPcDUCMhJo7mmsCI-45">
          <mxGeometry x="0.5208" y="-1" relative="1" as="geometry">
            <mxPoint y="37" as="offset" />
          </mxGeometry>
        </mxCell>
        <mxCell id="-7ICKPcDUCMhJo7mmsCI-63" value="1...1" style="edgeLabel;html=1;align=center;verticalAlign=middle;resizable=0;points=[];" vertex="1" connectable="0" parent="-7ICKPcDUCMhJo7mmsCI-45">
          <mxGeometry x="-0.8589" relative="1" as="geometry">
            <mxPoint as="offset" />
          </mxGeometry>
        </mxCell>
        <mxCell id="-7ICKPcDUCMhJo7mmsCI-100" style="edgeStyle=orthogonalEdgeStyle;rounded=0;orthogonalLoop=1;jettySize=auto;html=1;exitX=1;exitY=0.5;exitDx=0;exitDy=0;entryX=0;entryY=0.5;entryDx=0;entryDy=0;endArrow=none;endFill=0;" edge="1" parent="1" source="-7ICKPcDUCMhJo7mmsCI-4" target="-7ICKPcDUCMhJo7mmsCI-19">
          <mxGeometry relative="1" as="geometry" />
        </mxCell>
        <mxCell id="-7ICKPcDUCMhJo7mmsCI-101" value="0...N" style="edgeLabel;html=1;align=center;verticalAlign=middle;resizable=0;points=[];" vertex="1" connectable="0" parent="-7ICKPcDUCMhJo7mmsCI-100">
          <mxGeometry x="-0.6139" relative="1" as="geometry">
            <mxPoint as="offset" />
          </mxGeometry>
        </mxCell>
        <mxCell id="-7ICKPcDUCMhJo7mmsCI-102" value="1...1" style="edgeLabel;html=1;align=center;verticalAlign=middle;resizable=0;points=[];" vertex="1" connectable="0" parent="-7ICKPcDUCMhJo7mmsCI-100">
          <mxGeometry x="0.5127" y="2" relative="1" as="geometry">
            <mxPoint y="2" as="offset" />
          </mxGeometry>
        </mxCell>
        <mxCell id="-7ICKPcDUCMhJo7mmsCI-4" value="Order" style="rounded=0;whiteSpace=wrap;html=1;" vertex="1" parent="1">
          <mxGeometry x="740" y="10" width="120" height="60" as="geometry" />
        </mxCell>
        <mxCell id="-7ICKPcDUCMhJo7mmsCI-7" value="FavoriteProduct" style="rounded=0;whiteSpace=wrap;html=1;" vertex="1" parent="1">
          <mxGeometry x="100" y="120" width="120" height="60" as="geometry" />
        </mxCell>
        <mxCell id="-7ICKPcDUCMhJo7mmsCI-28" style="edgeStyle=orthogonalEdgeStyle;rounded=0;orthogonalLoop=1;jettySize=auto;html=1;entryX=0;entryY=0.5;entryDx=0;entryDy=0;endArrow=none;endFill=0;exitX=1;exitY=0.5;exitDx=0;exitDy=0;" edge="1" parent="1" source="-7ICKPcDUCMhJo7mmsCI-9" target="-7ICKPcDUCMhJo7mmsCI-10">
          <mxGeometry relative="1" as="geometry">
            <mxPoint x="130" y="350" as="sourcePoint" />
            <Array as="points">
              <mxPoint x="290" y="370" />
              <mxPoint x="290" y="370" />
            </Array>
          </mxGeometry>
        </mxCell>
        <mxCell id="-7ICKPcDUCMhJo7mmsCI-70" value="1...1" style="edgeLabel;html=1;align=center;verticalAlign=middle;resizable=0;points=[];" vertex="1" connectable="0" parent="-7ICKPcDUCMhJo7mmsCI-28">
          <mxGeometry x="-0.9141" y="1" relative="1" as="geometry">
            <mxPoint as="offset" />
          </mxGeometry>
        </mxCell>
        <mxCell id="-7ICKPcDUCMhJo7mmsCI-71" value="1...N" style="edgeLabel;html=1;align=center;verticalAlign=middle;resizable=0;points=[];" vertex="1" connectable="0" parent="-7ICKPcDUCMhJo7mmsCI-28">
          <mxGeometry x="0.7575" y="1" relative="1" as="geometry">
            <mxPoint as="offset" />
          </mxGeometry>
        </mxCell>
        <mxCell id="-7ICKPcDUCMhJo7mmsCI-29" style="edgeStyle=orthogonalEdgeStyle;rounded=0;orthogonalLoop=1;jettySize=auto;html=1;entryX=0.5;entryY=0;entryDx=0;entryDy=0;endArrow=none;endFill=0;" edge="1" parent="1">
          <mxGeometry relative="1" as="geometry">
            <mxPoint x="130" y="400" as="sourcePoint" />
            <mxPoint x="210" y="589.94" as="targetPoint" />
          </mxGeometry>
        </mxCell>
        <mxCell id="-7ICKPcDUCMhJo7mmsCI-78" value="1...N" style="edgeLabel;html=1;align=center;verticalAlign=middle;resizable=0;points=[];" vertex="1" connectable="0" parent="-7ICKPcDUCMhJo7mmsCI-29">
          <mxGeometry x="-0.8557" relative="1" as="geometry">
            <mxPoint as="offset" />
          </mxGeometry>
        </mxCell>
        <mxCell id="-7ICKPcDUCMhJo7mmsCI-79" value="1...1" style="edgeLabel;html=1;align=center;verticalAlign=middle;resizable=0;points=[];" vertex="1" connectable="0" parent="-7ICKPcDUCMhJo7mmsCI-29">
          <mxGeometry x="0.8645" y="1" relative="1" as="geometry">
            <mxPoint as="offset" />
          </mxGeometry>
        </mxCell>
        <mxCell id="-7ICKPcDUCMhJo7mmsCI-118" value="1...1" style="edgeLabel;html=1;align=center;verticalAlign=middle;resizable=0;points=[];" vertex="1" connectable="0" parent="-7ICKPcDUCMhJo7mmsCI-29">
          <mxGeometry x="0.6522" y="2" relative="1" as="geometry">
            <mxPoint as="offset" />
          </mxGeometry>
        </mxCell>
        <mxCell id="-7ICKPcDUCMhJo7mmsCI-48" value="" style="edgeStyle=orthogonalEdgeStyle;rounded=0;orthogonalLoop=1;jettySize=auto;html=1;endArrow=none;endFill=0;" edge="1" parent="1" source="-7ICKPcDUCMhJo7mmsCI-9" target="-7ICKPcDUCMhJo7mmsCI-12">
          <mxGeometry relative="1" as="geometry" />
        </mxCell>
        <mxCell id="-7ICKPcDUCMhJo7mmsCI-76" value="1...1" style="edgeLabel;html=1;align=center;verticalAlign=middle;resizable=0;points=[];" vertex="1" connectable="0" parent="-7ICKPcDUCMhJo7mmsCI-48">
          <mxGeometry x="-0.4857" y="-1" relative="1" as="geometry">
            <mxPoint as="offset" />
          </mxGeometry>
        </mxCell>
        <mxCell id="-7ICKPcDUCMhJo7mmsCI-77" value="1...N" style="edgeLabel;html=1;align=center;verticalAlign=middle;resizable=0;points=[];" vertex="1" connectable="0" parent="-7ICKPcDUCMhJo7mmsCI-48">
          <mxGeometry x="0.5429" y="1" relative="1" as="geometry">
            <mxPoint as="offset" />
          </mxGeometry>
        </mxCell>
        <mxCell id="-7ICKPcDUCMhJo7mmsCI-9" value="Product" style="rounded=0;whiteSpace=wrap;html=1;" vertex="1" parent="1">
          <mxGeometry x="10" y="340" width="120" height="60" as="geometry" />
        </mxCell>
        <mxCell id="-7ICKPcDUCMhJo7mmsCI-10" value="Variant" style="rounded=0;whiteSpace=wrap;html=1;" vertex="1" parent="1">
          <mxGeometry x="500" y="340" width="120" height="60" as="geometry" />
        </mxCell>
        <mxCell id="-7ICKPcDUCMhJo7mmsCI-11" value="Manufacturer" style="rounded=0;whiteSpace=wrap;html=1;" vertex="1" parent="1">
          <mxGeometry x="150" y="560" width="120" height="60" as="geometry" />
        </mxCell>
        <mxCell id="-7ICKPcDUCMhJo7mmsCI-12" value="ProductCategory" style="rounded=0;whiteSpace=wrap;html=1;" vertex="1" parent="1">
          <mxGeometry x="10" y="450" width="120" height="60" as="geometry" />
        </mxCell>
        <mxCell id="-7ICKPcDUCMhJo7mmsCI-53" value="" style="edgeStyle=orthogonalEdgeStyle;rounded=0;orthogonalLoop=1;jettySize=auto;html=1;endArrow=none;endFill=0;" edge="1" parent="1" source="-7ICKPcDUCMhJo7mmsCI-14" target="-7ICKPcDUCMhJo7mmsCI-35">
          <mxGeometry relative="1" as="geometry" />
        </mxCell>
        <mxCell id="-7ICKPcDUCMhJo7mmsCI-82" value="0...N" style="edgeLabel;html=1;align=center;verticalAlign=middle;resizable=0;points=[];" vertex="1" connectable="0" parent="-7ICKPcDUCMhJo7mmsCI-53">
          <mxGeometry x="-0.6302" y="2" relative="1" as="geometry">
            <mxPoint as="offset" />
          </mxGeometry>
        </mxCell>
        <mxCell id="-7ICKPcDUCMhJo7mmsCI-83" value="1...1" style="edgeLabel;html=1;align=center;verticalAlign=middle;resizable=0;points=[];" vertex="1" connectable="0" parent="-7ICKPcDUCMhJo7mmsCI-53">
          <mxGeometry x="0.382" y="2" relative="1" as="geometry">
            <mxPoint as="offset" />
          </mxGeometry>
        </mxCell>
        <mxCell id="-7ICKPcDUCMhJo7mmsCI-14" value="Stock" style="rounded=0;whiteSpace=wrap;html=1;" vertex="1" parent="1">
          <mxGeometry x="740" y="340" width="120" height="60" as="geometry" />
        </mxCell>
        <mxCell id="-7ICKPcDUCMhJo7mmsCI-32" style="edgeStyle=orthogonalEdgeStyle;rounded=0;orthogonalLoop=1;jettySize=auto;html=1;exitX=0.5;exitY=1;exitDx=0;exitDy=0;entryX=0.5;entryY=0;entryDx=0;entryDy=0;endArrow=none;endFill=0;" edge="1" parent="1" source="-7ICKPcDUCMhJo7mmsCI-15" target="-7ICKPcDUCMhJo7mmsCI-9">
          <mxGeometry relative="1" as="geometry" />
        </mxCell>
        <mxCell id="-7ICKPcDUCMhJo7mmsCI-90" value="0...N" style="edgeLabel;html=1;align=center;verticalAlign=middle;resizable=0;points=[];" vertex="1" connectable="0" parent="-7ICKPcDUCMhJo7mmsCI-32">
          <mxGeometry x="-0.8563" relative="1" as="geometry">
            <mxPoint as="offset" />
          </mxGeometry>
        </mxCell>
        <mxCell id="-7ICKPcDUCMhJo7mmsCI-91" value="1...1" style="edgeLabel;html=1;align=center;verticalAlign=middle;resizable=0;points=[];" vertex="1" connectable="0" parent="-7ICKPcDUCMhJo7mmsCI-32">
          <mxGeometry x="0.8495" relative="1" as="geometry">
            <mxPoint as="offset" />
          </mxGeometry>
        </mxCell>
        <mxCell id="-7ICKPcDUCMhJo7mmsCI-15" value="Review" style="rounded=0;whiteSpace=wrap;html=1;" vertex="1" parent="1">
          <mxGeometry x="10" y="10" width="120" height="60" as="geometry" />
        </mxCell>
        <mxCell id="-7ICKPcDUCMhJo7mmsCI-16" value="Attribute" style="rounded=0;whiteSpace=wrap;html=1;" vertex="1" parent="1">
          <mxGeometry x="294" y="560" width="120" height="60" as="geometry" />
        </mxCell>
        <mxCell id="-7ICKPcDUCMhJo7mmsCI-19" value="DeliveryMethod" style="rounded=0;whiteSpace=wrap;html=1;" vertex="1" parent="1">
          <mxGeometry x="930" y="10" width="120" height="60" as="geometry" />
        </mxCell>
        <mxCell id="-7ICKPcDUCMhJo7mmsCI-22" style="edgeStyle=orthogonalEdgeStyle;rounded=0;orthogonalLoop=1;jettySize=auto;html=1;exitX=1;exitY=0.5;exitDx=0;exitDy=0;endArrow=none;endFill=0;entryX=0;entryY=0.5;entryDx=0;entryDy=0;" edge="1" parent="1" source="-7ICKPcDUCMhJo7mmsCI-15" target="-7ICKPcDUCMhJo7mmsCI-1">
          <mxGeometry relative="1" as="geometry">
            <mxPoint x="190" y="120" as="sourcePoint" />
            <mxPoint x="240" y="120" as="targetPoint" />
          </mxGeometry>
        </mxCell>
        <mxCell id="-7ICKPcDUCMhJo7mmsCI-88" value="1...1" style="edgeLabel;html=1;align=center;verticalAlign=middle;resizable=0;points=[];" vertex="1" connectable="0" parent="-7ICKPcDUCMhJo7mmsCI-22">
          <mxGeometry x="0.7167" y="1" relative="1" as="geometry">
            <mxPoint as="offset" />
          </mxGeometry>
        </mxCell>
        <mxCell id="-7ICKPcDUCMhJo7mmsCI-89" value="0...N" style="edgeLabel;html=1;align=center;verticalAlign=middle;resizable=0;points=[];" vertex="1" connectable="0" parent="-7ICKPcDUCMhJo7mmsCI-22">
          <mxGeometry x="-0.7024" y="1" relative="1" as="geometry">
            <mxPoint as="offset" />
          </mxGeometry>
        </mxCell>
        <mxCell id="-7ICKPcDUCMhJo7mmsCI-24" style="rounded=0;orthogonalLoop=1;jettySize=auto;html=1;exitX=0.5;exitY=0;exitDx=0;exitDy=0;entryX=0.5;entryY=1;entryDx=0;entryDy=0;endArrow=none;endFill=0;" edge="1" parent="1" source="-7ICKPcDUCMhJo7mmsCI-8" target="-7ICKPcDUCMhJo7mmsCI-2">
          <mxGeometry relative="1" as="geometry">
            <mxPoint x="420" y="180" as="sourcePoint" />
            <mxPoint x="350" y="300" as="targetPoint" />
          </mxGeometry>
        </mxCell>
        <mxCell id="-7ICKPcDUCMhJo7mmsCI-58" value="0...N" style="edgeLabel;html=1;align=center;verticalAlign=middle;resizable=0;points=[];" vertex="1" connectable="0" parent="-7ICKPcDUCMhJo7mmsCI-24">
          <mxGeometry x="-0.3524" y="1" relative="1" as="geometry">
            <mxPoint as="offset" />
          </mxGeometry>
        </mxCell>
        <mxCell id="-7ICKPcDUCMhJo7mmsCI-59" value="1...1" style="edgeLabel;html=1;align=center;verticalAlign=middle;resizable=0;points=[];" vertex="1" connectable="0" parent="-7ICKPcDUCMhJo7mmsCI-24">
          <mxGeometry x="0.6952" y="1" relative="1" as="geometry">
            <mxPoint y="2" as="offset" />
          </mxGeometry>
        </mxCell>
        <mxCell id="-7ICKPcDUCMhJo7mmsCI-27" style="edgeStyle=orthogonalEdgeStyle;rounded=0;orthogonalLoop=1;jettySize=auto;html=1;exitX=0;exitY=0;exitDx=0;exitDy=0;entryX=1;entryY=0.5;entryDx=0;entryDy=0;endArrow=none;endFill=0;" edge="1" parent="1" source="-7ICKPcDUCMhJo7mmsCI-10" target="-7ICKPcDUCMhJo7mmsCI-8">
          <mxGeometry relative="1" as="geometry">
            <mxPoint x="440" y="380" as="sourcePoint" />
            <mxPoint x="360" y="440" as="targetPoint" />
          </mxGeometry>
        </mxCell>
        <mxCell id="-7ICKPcDUCMhJo7mmsCI-60" value="1...1" style="edgeLabel;html=1;align=center;verticalAlign=middle;resizable=0;points=[];" vertex="1" connectable="0" parent="-7ICKPcDUCMhJo7mmsCI-27">
          <mxGeometry x="-0.7798" y="-1" relative="1" as="geometry">
            <mxPoint y="-2" as="offset" />
          </mxGeometry>
        </mxCell>
        <mxCell id="-7ICKPcDUCMhJo7mmsCI-61" value="0...N" style="edgeLabel;html=1;align=center;verticalAlign=middle;resizable=0;points=[];" vertex="1" connectable="0" parent="-7ICKPcDUCMhJo7mmsCI-27">
          <mxGeometry x="0.844" relative="1" as="geometry">
            <mxPoint x="8" as="offset" />
          </mxGeometry>
        </mxCell>
        <mxCell id="-7ICKPcDUCMhJo7mmsCI-31" style="edgeStyle=orthogonalEdgeStyle;rounded=0;orthogonalLoop=1;jettySize=auto;html=1;exitX=0;exitY=0.5;exitDx=0;exitDy=0;entryX=1;entryY=0.5;entryDx=0;entryDy=0;endArrow=none;endFill=0;" edge="1" parent="1" source="-7ICKPcDUCMhJo7mmsCI-14" target="-7ICKPcDUCMhJo7mmsCI-10">
          <mxGeometry relative="1" as="geometry" />
        </mxCell>
        <mxCell id="-7ICKPcDUCMhJo7mmsCI-80" value="1...1" style="edgeLabel;html=1;align=center;verticalAlign=middle;resizable=0;points=[];" vertex="1" connectable="0" parent="-7ICKPcDUCMhJo7mmsCI-31">
          <mxGeometry x="0.7122" y="-1" relative="1" as="geometry">
            <mxPoint as="offset" />
          </mxGeometry>
        </mxCell>
        <mxCell id="-7ICKPcDUCMhJo7mmsCI-81" value="0...N" style="edgeLabel;html=1;align=center;verticalAlign=middle;resizable=0;points=[];" vertex="1" connectable="0" parent="-7ICKPcDUCMhJo7mmsCI-31">
          <mxGeometry x="-0.5204" y="-1" relative="1" as="geometry">
            <mxPoint as="offset" />
          </mxGeometry>
        </mxCell>
        <mxCell id="-7ICKPcDUCMhJo7mmsCI-35" value="Warehouse" style="rounded=0;whiteSpace=wrap;html=1;" vertex="1" parent="1">
          <mxGeometry x="930" y="340" width="120" height="60" as="geometry" />
        </mxCell>
        <mxCell id="-7ICKPcDUCMhJo7mmsCI-96" value="" style="edgeStyle=orthogonalEdgeStyle;rounded=0;orthogonalLoop=1;jettySize=auto;html=1;endArrow=none;endFill=0;" edge="1" parent="1" source="-7ICKPcDUCMhJo7mmsCI-39" target="-7ICKPcDUCMhJo7mmsCI-4">
          <mxGeometry relative="1" as="geometry" />
        </mxCell>
        <mxCell id="-7ICKPcDUCMhJo7mmsCI-97" value="0...N" style="edgeLabel;html=1;align=center;verticalAlign=middle;resizable=0;points=[];" vertex="1" connectable="0" parent="-7ICKPcDUCMhJo7mmsCI-96">
          <mxGeometry x="0.4343" y="1" relative="1" as="geometry">
            <mxPoint as="offset" />
          </mxGeometry>
        </mxCell>
        <mxCell id="-7ICKPcDUCMhJo7mmsCI-98" value="1...1" style="edgeLabel;html=1;align=center;verticalAlign=middle;resizable=0;points=[];" vertex="1" connectable="0" parent="-7ICKPcDUCMhJo7mmsCI-96">
          <mxGeometry x="-0.6213" relative="1" as="geometry">
            <mxPoint y="-1" as="offset" />
          </mxGeometry>
        </mxCell>
        <mxCell id="-7ICKPcDUCMhJo7mmsCI-39" value="PaymentMethod" style="rounded=0;whiteSpace=wrap;html=1;" vertex="1" parent="1">
          <mxGeometry x="740" y="120" width="120" height="60" as="geometry" />
        </mxCell>
        <mxCell id="-7ICKPcDUCMhJo7mmsCI-42" value="" style="edgeStyle=orthogonalEdgeStyle;rounded=0;orthogonalLoop=1;jettySize=auto;html=1;exitX=0.5;exitY=1;exitDx=0;exitDy=0;entryX=1;entryY=0;entryDx=0;entryDy=0;endArrow=none;endFill=0;" edge="1" parent="1" source="-7ICKPcDUCMhJo7mmsCI-7" target="-7ICKPcDUCMhJo7mmsCI-9">
          <mxGeometry relative="1" as="geometry">
            <mxPoint x="480" y="170" as="sourcePoint" />
            <mxPoint x="306" y="319" as="targetPoint" />
            <Array as="points">
              <mxPoint x="130" y="180" />
            </Array>
          </mxGeometry>
        </mxCell>
        <mxCell id="-7ICKPcDUCMhJo7mmsCI-86" value="1...1" style="edgeLabel;html=1;align=center;verticalAlign=middle;resizable=0;points=[];" vertex="1" connectable="0" parent="-7ICKPcDUCMhJo7mmsCI-42">
          <mxGeometry x="0.8403" relative="1" as="geometry">
            <mxPoint as="offset" />
          </mxGeometry>
        </mxCell>
        <mxCell id="-7ICKPcDUCMhJo7mmsCI-87" value="0...N" style="edgeLabel;html=1;align=center;verticalAlign=middle;resizable=0;points=[];" vertex="1" connectable="0" parent="-7ICKPcDUCMhJo7mmsCI-42">
          <mxGeometry x="-0.5135" y="-2" relative="1" as="geometry">
            <mxPoint as="offset" />
          </mxGeometry>
        </mxCell>
        <mxCell id="-7ICKPcDUCMhJo7mmsCI-8" value="CartItem" style="rounded=0;whiteSpace=wrap;html=1;" vertex="1" parent="1">
          <mxGeometry x="300" y="230" width="120" height="60" as="geometry" />
        </mxCell>
        <mxCell id="-7ICKPcDUCMhJo7mmsCI-44" style="edgeStyle=orthogonalEdgeStyle;rounded=0;orthogonalLoop=1;jettySize=auto;html=1;entryX=0.5;entryY=0;entryDx=0;entryDy=0;endArrow=none;endFill=0;" edge="1" parent="1" source="-7ICKPcDUCMhJo7mmsCI-43" target="-7ICKPcDUCMhJo7mmsCI-10">
          <mxGeometry relative="1" as="geometry" />
        </mxCell>
        <mxCell id="-7ICKPcDUCMhJo7mmsCI-64" value="0...N" style="edgeLabel;html=1;align=center;verticalAlign=middle;resizable=0;points=[];" vertex="1" connectable="0" parent="-7ICKPcDUCMhJo7mmsCI-44">
          <mxGeometry x="-0.8214" relative="1" as="geometry">
            <mxPoint as="offset" />
          </mxGeometry>
        </mxCell>
        <mxCell id="-7ICKPcDUCMhJo7mmsCI-65" value="1...1" style="edgeLabel;html=1;align=center;verticalAlign=middle;resizable=0;points=[];" vertex="1" connectable="0" parent="-7ICKPcDUCMhJo7mmsCI-44">
          <mxGeometry x="0.6845" y="-2" relative="1" as="geometry">
            <mxPoint y="5" as="offset" />
          </mxGeometry>
        </mxCell>
        <mxCell id="-7ICKPcDUCMhJo7mmsCI-43" value="OrderItem" style="rounded=0;whiteSpace=wrap;html=1;" vertex="1" parent="1">
          <mxGeometry x="500" y="120" width="120" height="60" as="geometry" />
        </mxCell>
        <mxCell id="-7ICKPcDUCMhJo7mmsCI-46" value="Category" style="rounded=0;whiteSpace=wrap;html=1;" vertex="1" parent="1">
          <mxGeometry x="10" y="560" width="120" height="60" as="geometry" />
        </mxCell>
        <mxCell id="-7ICKPcDUCMhJo7mmsCI-47" style="edgeStyle=orthogonalEdgeStyle;rounded=0;orthogonalLoop=1;jettySize=auto;html=1;entryX=0.5;entryY=1;entryDx=0;entryDy=0;endArrow=none;endFill=0;" edge="1" parent="1" source="-7ICKPcDUCMhJo7mmsCI-46" target="-7ICKPcDUCMhJo7mmsCI-12">
          <mxGeometry relative="1" as="geometry" />
        </mxCell>
        <mxCell id="-7ICKPcDUCMhJo7mmsCI-92" value="1...1" style="edgeLabel;html=1;align=center;verticalAlign=middle;resizable=0;points=[];" vertex="1" connectable="0" parent="-7ICKPcDUCMhJo7mmsCI-47">
          <mxGeometry x="-0.5573" relative="1" as="geometry">
            <mxPoint as="offset" />
          </mxGeometry>
        </mxCell>
        <mxCell id="-7ICKPcDUCMhJo7mmsCI-93" value="0...N" style="edgeLabel;html=1;align=center;verticalAlign=middle;resizable=0;points=[];" vertex="1" connectable="0" parent="-7ICKPcDUCMhJo7mmsCI-47">
          <mxGeometry x="0.6693" y="-1" relative="1" as="geometry">
            <mxPoint y="2" as="offset" />
          </mxGeometry>
        </mxCell>
        <mxCell id="-7ICKPcDUCMhJo7mmsCI-50" style="edgeStyle=orthogonalEdgeStyle;rounded=0;orthogonalLoop=1;jettySize=auto;html=1;entryX=1;entryY=0;entryDx=0;entryDy=0;endArrow=none;endFill=0;" edge="1" parent="1" source="-7ICKPcDUCMhJo7mmsCI-49" target="-7ICKPcDUCMhJo7mmsCI-10">
          <mxGeometry relative="1" as="geometry">
            <Array as="points">
              <mxPoint x="640" y="340" />
            </Array>
          </mxGeometry>
        </mxCell>
        <mxCell id="-7ICKPcDUCMhJo7mmsCI-84" value="0...N" style="edgeLabel;html=1;align=center;verticalAlign=middle;resizable=0;points=[];" vertex="1" connectable="0" parent="-7ICKPcDUCMhJo7mmsCI-50">
          <mxGeometry x="0.6999" y="1" relative="1" as="geometry">
            <mxPoint as="offset" />
          </mxGeometry>
        </mxCell>
        <mxCell id="-7ICKPcDUCMhJo7mmsCI-85" value="0...1" style="edgeLabel;html=1;align=center;verticalAlign=middle;resizable=0;points=[];" vertex="1" connectable="0" parent="-7ICKPcDUCMhJo7mmsCI-50">
          <mxGeometry x="-0.6961" y="-1" relative="1" as="geometry">
            <mxPoint as="offset" />
          </mxGeometry>
        </mxCell>
        <mxCell id="-7ICKPcDUCMhJo7mmsCI-49" value="Promotion" style="rounded=0;whiteSpace=wrap;html=1;" vertex="1" parent="1">
          <mxGeometry x="630" y="230" width="120" height="60" as="geometry" />
        </mxCell>
        <mxCell id="-7ICKPcDUCMhJo7mmsCI-52" style="edgeStyle=orthogonalEdgeStyle;rounded=0;orthogonalLoop=1;jettySize=auto;html=1;entryX=1;entryY=0.5;entryDx=0;entryDy=0;endArrow=none;endFill=0;" edge="1" parent="1" source="-7ICKPcDUCMhJo7mmsCI-51" target="-7ICKPcDUCMhJo7mmsCI-16">
          <mxGeometry relative="1" as="geometry" />
        </mxCell>
        <mxCell id="-7ICKPcDUCMhJo7mmsCI-74" value="1...1" style="edgeLabel;html=1;align=center;verticalAlign=middle;resizable=0;points=[];" vertex="1" connectable="0" parent="-7ICKPcDUCMhJo7mmsCI-52">
          <mxGeometry x="0.619" y="-1" relative="1" as="geometry">
            <mxPoint y="1" as="offset" />
          </mxGeometry>
        </mxCell>
        <mxCell id="-7ICKPcDUCMhJo7mmsCI-75" value="1...N" style="edgeLabel;html=1;align=center;verticalAlign=middle;resizable=0;points=[];" vertex="1" connectable="0" parent="-7ICKPcDUCMhJo7mmsCI-52">
          <mxGeometry x="-0.4286" relative="1" as="geometry">
            <mxPoint as="offset" />
          </mxGeometry>
        </mxCell>
        <mxCell id="-7ICKPcDUCMhJo7mmsCI-51" value="Option" style="rounded=0;whiteSpace=wrap;html=1;" vertex="1" parent="1">
          <mxGeometry x="500" y="560" width="120" height="60" as="geometry" />
        </mxCell>
        <mxCell id="-7ICKPcDUCMhJo7mmsCI-104" style="edgeStyle=orthogonalEdgeStyle;rounded=0;orthogonalLoop=1;jettySize=auto;html=1;exitX=0.5;exitY=0;exitDx=0;exitDy=0;endArrow=none;endFill=0;" edge="1" parent="1" source="-7ICKPcDUCMhJo7mmsCI-103">
          <mxGeometry relative="1" as="geometry">
            <mxPoint x="130" y="390" as="targetPoint" />
            <Array as="points">
              <mxPoint x="354" y="390" />
            </Array>
          </mxGeometry>
        </mxCell>
        <mxCell id="-7ICKPcDUCMhJo7mmsCI-110" value="1...1" style="edgeLabel;html=1;align=center;verticalAlign=middle;resizable=0;points=[];" vertex="1" connectable="0" parent="-7ICKPcDUCMhJo7mmsCI-104">
          <mxGeometry x="0.8905" y="-2" relative="1" as="geometry">
            <mxPoint as="offset" />
          </mxGeometry>
        </mxCell>
        <mxCell id="-7ICKPcDUCMhJo7mmsCI-111" value="0...N" style="edgeLabel;html=1;align=center;verticalAlign=middle;resizable=0;points=[];" vertex="1" connectable="0" parent="-7ICKPcDUCMhJo7mmsCI-104">
          <mxGeometry x="-0.8995" y="1" relative="1" as="geometry">
            <mxPoint as="offset" />
          </mxGeometry>
        </mxCell>
        <mxCell id="-7ICKPcDUCMhJo7mmsCI-105" style="edgeStyle=orthogonalEdgeStyle;rounded=0;orthogonalLoop=1;jettySize=auto;html=1;exitX=0.5;exitY=1;exitDx=0;exitDy=0;entryX=0.5;entryY=0;entryDx=0;entryDy=0;endArrow=none;endFill=0;" edge="1" parent="1" source="-7ICKPcDUCMhJo7mmsCI-103" target="-7ICKPcDUCMhJo7mmsCI-16">
          <mxGeometry relative="1" as="geometry" />
        </mxCell>
        <mxCell id="-7ICKPcDUCMhJo7mmsCI-112" value="1...1" style="edgeLabel;html=1;align=center;verticalAlign=middle;resizable=0;points=[];" vertex="1" connectable="0" parent="-7ICKPcDUCMhJo7mmsCI-105">
          <mxGeometry x="0.2473" y="-1" relative="1" as="geometry">
            <mxPoint x="1" y="9" as="offset" />
          </mxGeometry>
        </mxCell>
        <mxCell id="-7ICKPcDUCMhJo7mmsCI-113" value="0...N" style="edgeLabel;html=1;align=center;verticalAlign=middle;resizable=0;points=[];" vertex="1" connectable="0" parent="-7ICKPcDUCMhJo7mmsCI-105">
          <mxGeometry x="-0.6255" y="1" relative="1" as="geometry">
            <mxPoint as="offset" />
          </mxGeometry>
        </mxCell>
        <mxCell id="-7ICKPcDUCMhJo7mmsCI-103" value="ProductAttribute" style="rounded=0;whiteSpace=wrap;html=1;" vertex="1" parent="1">
          <mxGeometry x="294" y="450" width="120" height="60" as="geometry" />
        </mxCell>
        <mxCell id="-7ICKPcDUCMhJo7mmsCI-108" value="" style="edgeStyle=orthogonalEdgeStyle;rounded=0;orthogonalLoop=1;jettySize=auto;html=1;endArrow=none;endFill=0;" edge="1" parent="1" source="-7ICKPcDUCMhJo7mmsCI-107" target="-7ICKPcDUCMhJo7mmsCI-10">
          <mxGeometry relative="1" as="geometry" />
        </mxCell>
        <mxCell id="-7ICKPcDUCMhJo7mmsCI-114" value="0...N" style="edgeLabel;html=1;align=center;verticalAlign=middle;resizable=0;points=[];" vertex="1" connectable="0" parent="-7ICKPcDUCMhJo7mmsCI-108">
          <mxGeometry x="-0.3564" y="-2" relative="1" as="geometry">
            <mxPoint as="offset" />
          </mxGeometry>
        </mxCell>
        <mxCell id="-7ICKPcDUCMhJo7mmsCI-115" value="1...1" style="edgeLabel;html=1;align=center;verticalAlign=middle;resizable=0;points=[];" vertex="1" connectable="0" parent="-7ICKPcDUCMhJo7mmsCI-108">
          <mxGeometry x="0.5891" y="2" relative="1" as="geometry">
            <mxPoint as="offset" />
          </mxGeometry>
        </mxCell>
        <mxCell id="-7ICKPcDUCMhJo7mmsCI-109" value="" style="edgeStyle=orthogonalEdgeStyle;rounded=0;orthogonalLoop=1;jettySize=auto;html=1;endArrow=none;endFill=0;" edge="1" parent="1" source="-7ICKPcDUCMhJo7mmsCI-107" target="-7ICKPcDUCMhJo7mmsCI-51">
          <mxGeometry relative="1" as="geometry" />
        </mxCell>
        <mxCell id="-7ICKPcDUCMhJo7mmsCI-116" value="1...1" style="edgeLabel;html=1;align=center;verticalAlign=middle;resizable=0;points=[];" vertex="1" connectable="0" parent="-7ICKPcDUCMhJo7mmsCI-109">
          <mxGeometry x="0.5382" y="-1" relative="1" as="geometry">
            <mxPoint as="offset" />
          </mxGeometry>
        </mxCell>
        <mxCell id="-7ICKPcDUCMhJo7mmsCI-117" value="0...N" style="edgeLabel;html=1;align=center;verticalAlign=middle;resizable=0;points=[];" vertex="1" connectable="0" parent="-7ICKPcDUCMhJo7mmsCI-109">
          <mxGeometry x="-0.5891" y="1" relative="1" as="geometry">
            <mxPoint as="offset" />
          </mxGeometry>
        </mxCell>
        <mxCell id="-7ICKPcDUCMhJo7mmsCI-107" value="VariantOption" style="rounded=0;whiteSpace=wrap;html=1;" vertex="1" parent="1">
          <mxGeometry x="500" y="450" width="120" height="60" as="geometry" />
        </mxCell>
      </root>
    </mxGraphModel>
  </diagram>
</mxfile>
